<svg width="17" height="17" viewBox="0 0 17 17" fill="none" xmlns="http://www.w3.org/2000/svg">
<path d="M8.49999 14.6626C5.12534 14.6626 2.34232 11.8675 2.34232 8.50496C2.34232 5.13635 5.13138 2.34729 8.49395 2.34729C11.8626 2.34729 14.6577 5.13635 14.6577 8.50496C14.6577 11.8675 11.8686 14.6626 8.49999 14.6626ZM7.00886 13.6243L6.58628 11.777L7.35297 10.793H9.63493L10.4077 11.777L9.97903 13.6243C11.2166 13.2621 12.2791 12.4531 12.9673 11.3906L10.9268 11.3604L10.0817 10.2798L10.7276 8.28763L12.2972 7.65375L13.8366 8.52307C13.8306 7.22513 13.3778 6.06 12.6232 5.14239L12.0497 7.03195L10.5344 7.64772L8.83805 6.34374V4.75603L10.3654 3.51242C9.77982 3.28905 9.14594 3.16831 8.49395 3.16831C7.84196 3.16831 7.20808 3.28905 6.6225 3.51242L8.15588 4.75603V6.34374L6.4595 7.64772L4.9382 7.03195L4.36469 5.14239C3.61007 6.06 3.1573 7.22513 3.15126 8.52307L4.69068 7.65375L6.26028 8.28763L6.90624 10.2798L6.06107 11.3604L4.02058 11.3906C4.70879 12.4531 5.77129 13.2621 7.00886 13.6243Z" fill="white"/>
</svg>
