<svg width="31" height="30" viewBox="0 0 31 30" fill="none" xmlns="http://www.w3.org/2000/svg">
<path d="M5.0397 23.9531C2.99869 23.9531 1.9733 22.9473 1.9733 20.9258V9.00195C1.9733 6.98047 2.99869 5.97461 5.0397 5.97461H25.3034C27.3444 5.97461 28.36 6.99023 28.36 9.00195V20.9258C28.36 22.9375 27.3444 23.9531 25.3034 23.9531H5.0397ZM5.05923 22.3809H14.4538V19.5293C12.11 19.2461 10.5378 17.459 10.5378 14.959C10.5378 12.4395 12.11 10.6523 14.4538 10.3887V7.54688H5.05923C4.08267 7.54688 3.54556 8.06445 3.54556 9.08008V10.6133H5.95767C7.2565 10.6133 8.00845 11.3652 8.00845 12.6445V17.2734C8.00845 18.5527 7.2565 19.3047 5.95767 19.3047H3.54556V20.8477C3.54556 21.8633 4.08267 22.3809 5.05923 22.3809ZM19.7467 14.959C19.776 17.4492 18.194 19.2363 15.8307 19.5293V22.3809H25.2741C26.2409 22.3809 26.7878 21.8633 26.7878 20.8477V19.3047H24.3756C23.0768 19.3047 22.3346 18.5527 22.3346 17.2734V12.6445C22.3346 11.3652 23.0768 10.6133 24.3756 10.6133H26.7878V9.08008C26.7878 8.06445 26.2409 7.54688 25.2741 7.54688H15.8307V10.3984C18.1549 10.7109 19.7272 12.5078 19.7467 14.959ZM18.4479 14.9492C18.4577 13.2598 17.403 12 15.8307 11.7266V18.2012C17.3932 17.918 18.4381 16.6582 18.4479 14.9492ZM11.8366 14.9492C11.8366 16.6582 12.8815 17.918 14.4538 18.2012V11.7266C12.8815 12.0098 11.8366 13.2598 11.8366 14.9492ZM24.3854 17.9277H26.7878V11.9902H24.3854C23.9655 11.9902 23.7116 12.2441 23.7116 12.6836V17.2344C23.7116 17.6738 23.9655 17.9277 24.3854 17.9277ZM5.94791 11.9902H3.54556V17.9277H5.94791C6.37759 17.9277 6.6315 17.6738 6.6315 17.2344V12.6836C6.6315 12.2441 6.37759 11.9902 5.94791 11.9902Z" fill="#4B4B4B"/>
</svg>
