<svg width="22" height="23" viewBox="0 0 22 23" fill="none" xmlns="http://www.w3.org/2000/svg">
<path d="M3.95264 19.5503C2.24268 19.5503 1.3877 18.7202 1.3877 17.0186V8.94189C1.3877 7.24023 2.24268 6.41016 3.95264 6.41016H6.7832V5.75439C6.7832 4.19385 7.68799 3.46338 9.10742 3.46338H12.876C14.3784 3.46338 15.2002 4.19385 15.2002 5.75439V6.41016H18.0391C19.7573 6.41016 20.604 7.24023 20.604 8.94189V17.0186C20.604 18.7202 19.7573 19.5503 18.0391 19.5503H3.95264ZM8.06982 5.66309V6.41016H13.9136V5.66309C13.9136 5.03223 13.5483 4.67529 12.9009 4.67529H9.09082C8.44336 4.67529 8.06982 5.03223 8.06982 5.66309ZM2.72412 9.0083V9.92969C5.17285 10.8262 7.97021 11.2661 10.9917 11.2661C14.0215 11.2661 16.8105 10.8262 19.2676 9.93799V9.0083C19.2676 8.16162 18.8359 7.73828 18.0225 7.73828H3.96924C3.15576 7.73828 2.72412 8.16162 2.72412 9.0083ZM3.96924 18.2222H18.0225C18.8359 18.2222 19.2676 17.8071 19.2676 16.9521V11.3242C17.3916 11.9468 15.3496 12.3203 13.208 12.478V13.1504C13.208 13.7314 12.8677 14.0552 12.2866 14.0552H9.70508C9.12402 14.0552 8.78369 13.7314 8.78369 13.1504V12.478C6.64209 12.3203 4.6001 11.9468 2.72412 11.3242V16.9521C2.72412 17.8071 3.15576 18.2222 3.96924 18.2222Z" fill="white"/>
</svg>
