<svg width="22" height="23" viewBox="0 0 22 23" fill="none" xmlns="http://www.w3.org/2000/svg">
<path d="M7.10498 20.6743C6.81722 20.6743 6.5931 20.5775 6.43262 20.3838C6.27767 20.1956 6.2002 19.9411 6.2002 19.6201V17.4619H5.80176C4.97721 17.4619 4.28271 17.3153 3.71826 17.022C3.15381 16.7231 2.72493 16.2915 2.43164 15.7271C2.14388 15.1626 2 14.4736 2 13.6602V7.30176C2 6.48828 2.14388 5.79932 2.43164 5.23486C2.72493 4.67041 3.15381 4.24154 3.71826 3.94824C4.28271 3.64941 4.97721 3.5 5.80176 3.5H16.4932C17.3177 3.5 18.0122 3.64941 18.5767 3.94824C19.1411 4.24154 19.5672 4.67041 19.855 5.23486C20.1483 5.79932 20.2949 6.48828 20.2949 7.30176V13.6602C20.2949 14.4736 20.1483 15.1626 19.855 15.7271C19.5672 16.2915 19.1411 16.7231 18.5767 17.022C18.0122 17.3153 17.3177 17.4619 16.4932 17.4619H11.1641L8.30029 20.0103C8.05127 20.2316 7.84098 20.3976 7.66943 20.5083C7.49788 20.619 7.30973 20.6743 7.10498 20.6743ZM7.44531 19.1553L10.1016 16.5156C10.2565 16.3551 10.4059 16.25 10.5498 16.2002C10.6937 16.1504 10.8818 16.1255 11.1143 16.1255H16.4932C17.3288 16.1255 17.9486 15.918 18.3525 15.5029C18.7565 15.0824 18.9585 14.4653 18.9585 13.6519V7.30176C18.9585 6.49382 18.7565 5.88232 18.3525 5.46729C17.9486 5.04671 17.3288 4.83643 16.4932 4.83643H5.80176C4.96061 4.83643 4.33805 5.04671 3.93408 5.46729C3.53564 5.88232 3.33643 6.49382 3.33643 7.30176V13.6519C3.33643 14.4653 3.53564 15.0824 3.93408 15.5029C4.33805 15.918 4.96061 16.1255 5.80176 16.1255H6.82275C7.04964 16.1255 7.21012 16.1725 7.3042 16.2666C7.39827 16.3607 7.44531 16.5212 7.44531 16.748V19.1553Z" fill="white"/>
<path d="M11.1636 8.93619H9.22155V7.8251C9.22155 7.75079 9.19203 7.67953 9.13949 7.62698C9.08695 7.57444 9.01568 7.54492 8.94138 7.54492C8.86707 7.54492 8.79581 7.57444 8.74326 7.62698C8.69072 7.67953 8.6612 7.75079 8.6612 7.8251V8.93619H6.71279C6.63848 8.93619 6.56722 8.96571 6.51468 9.01825C6.46214 9.07079 6.43262 9.14205 6.43262 9.21636C6.43262 9.29067 6.46214 9.36193 6.51468 9.41447C6.56722 9.46702 6.63848 9.49654 6.71279 9.49654H9.65542C9.37044 10.0713 8.59396 11.2432 6.70479 12.2182C6.64858 12.2468 6.60365 12.2935 6.57727 12.3508C6.55089 12.408 6.5446 12.4725 6.55941 12.5338C6.57423 12.5951 6.60928 12.6496 6.6589 12.6885C6.70852 12.7274 6.76982 12.7484 6.83287 12.7482C6.87757 12.7484 6.92163 12.7374 6.96095 12.7161C7.62873 12.3807 8.25073 11.9611 8.8117 11.4674L10.3647 12.7305C10.4139 12.7721 10.4763 12.7948 10.5408 12.7946C10.5988 12.7949 10.6555 12.7771 10.703 12.7438C10.7505 12.7105 10.7865 12.6633 10.806 12.6086C10.8255 12.5539 10.8276 12.4946 10.8119 12.4387C10.7962 12.3828 10.7636 12.3332 10.7185 12.2967L9.22155 11.0687C9.6682 10.6154 10.0256 10.082 10.275 9.49654H11.1684C11.2427 9.49654 11.3139 9.46702 11.3665 9.41447C11.419 9.36193 11.4485 9.29067 11.4485 9.21636C11.4485 9.14205 11.419 9.07079 11.3665 9.01825C11.3139 8.96571 11.2427 8.93619 11.1684 8.93619H11.1636Z" fill="white"/>
<path d="M15.8354 12.4327L14.0471 7.70499L14.0247 7.67137C14.0247 7.67137 14.0247 7.65536 14.0135 7.64896L13.9959 7.62654L13.9831 7.60733L13.9623 7.59132C13.9561 7.58462 13.9491 7.5787 13.9415 7.57371L13.919 7.5609L13.8918 7.5481H13.8758H13.847H13.8214H13.7926H13.7653H13.7397H13.7109H13.6949L13.6677 7.5609L13.6453 7.57371L13.6245 7.58972L13.6036 7.60733L13.586 7.62815C13.5798 7.63531 13.5739 7.64279 13.5684 7.65056L13.5556 7.67137C13.5507 7.68012 13.5464 7.68922 13.5428 7.69859L11.7321 12.4327C11.7189 12.4676 11.7128 12.5048 11.714 12.5421C11.7152 12.5793 11.7238 12.616 11.7392 12.65C11.7546 12.6839 11.7765 12.7145 11.8037 12.74C11.8309 12.7655 11.8629 12.7854 11.8978 12.7986C11.9327 12.8117 11.9698 12.8178 12.0071 12.8166C12.0444 12.8154 12.081 12.8069 12.115 12.7915C12.149 12.7761 12.1796 12.7542 12.2051 12.7269C12.2306 12.6997 12.2505 12.6678 12.2636 12.6329L12.6911 11.5026H14.8844L15.3055 12.6329C15.3261 12.6859 15.3621 12.7315 15.4089 12.7637C15.4558 12.796 15.5112 12.8134 15.5681 12.8138C15.6021 12.8137 15.6358 12.8072 15.6673 12.7946C15.7022 12.7819 15.7341 12.7624 15.7614 12.7374C15.7887 12.7123 15.8108 12.6821 15.8264 12.6485C15.8421 12.6149 15.8509 12.5786 15.8524 12.5415C15.854 12.5045 15.8482 12.4675 15.8354 12.4327ZM12.904 10.9422L13.7846 8.59515L14.6651 10.9422H12.904Z" fill="white"/>
</svg>
