<svg width="22" height="23" viewBox="0 0 22 23" fill="none" xmlns="http://www.w3.org/2000/svg">
<path d="M7.87891 5.52197C7.87891 3.80371 9.26514 2.39258 10.9917 2.39258C12.7266 2.39258 14.1128 3.80371 14.1128 5.52197C14.1128 6.98291 13.1167 8.21143 11.7637 8.54346V13.7979C11.7637 16.2549 11.332 17.583 10.9917 17.583C10.6597 17.583 10.2197 16.2466 10.2197 13.7979V8.54346C8.8667 8.20312 7.87891 6.98291 7.87891 5.52197ZM10.1035 5.69629C10.6929 5.69629 11.1743 5.19824 11.1743 4.61719C11.1743 4.04443 10.6929 3.55469 10.1035 3.55469C9.53906 3.55469 9.04102 4.04443 9.04102 4.61719C9.04102 5.19824 9.53906 5.69629 10.1035 5.69629ZM11 20.6211C5.99463 20.6211 3.11426 18.8945 3.11426 17.0684C3.11426 14.877 6.59229 13.5405 8.875 13.5156V14.7275C7.27295 14.7524 4.79932 15.624 4.79932 16.8691C4.79932 18.3135 7.41406 19.3096 11 19.3096C14.5693 19.3096 17.2007 18.2969 17.2007 16.8691C17.2007 15.624 14.7188 14.7524 13.1167 14.7275V13.5156C15.3994 13.5405 18.8774 14.877 18.8774 17.0684C18.8774 18.8945 16.0054 20.6211 11 20.6211Z" fill="white"/>
</svg>
