<svg width="31" height="30" viewBox="0 0 31 30" fill="none" xmlns="http://www.w3.org/2000/svg">
<path d="M5.7832 13.2207C5.7832 8.75781 9.39648 5.14453 13.8496 5.14453C18.3027 5.14453 21.916 8.75781 21.916 13.2207C21.916 14.8809 21.4082 16.4141 20.5293 17.6738L24.7383 21.9023C25.0508 22.2148 25.2168 22.6348 25.2168 23.084C25.2168 24.0215 24.5137 24.7539 23.5566 24.7539C23.1074 24.7539 22.6777 24.5977 22.3555 24.2754L18.1074 20.0273C16.8867 20.8184 15.4316 21.2871 13.8496 21.2871C9.39648 21.2871 5.7832 17.6738 5.7832 13.2207ZM8.16602 13.2207C8.16602 16.3555 10.7051 18.9043 13.8496 18.9043C16.9941 18.9043 19.543 16.3555 19.543 13.2207C19.543 10.0762 16.9941 7.52734 13.8496 7.52734C10.7051 7.52734 8.16602 10.0762 8.16602 13.2207Z" fill="#FFB900"/>
</svg>
