<svg width="31" height="30" viewBox="0 0 31 30" fill="none" xmlns="http://www.w3.org/2000/svg">
<path d="M21.0892 25.6816C20.6107 25.6816 20.2786 25.4277 19.6829 24.9004L16.3138 21.9023H10.0443C7.13411 21.9023 5.57161 20.291 5.57161 17.4297V9.94922C5.57161 7.08789 7.13411 5.47656 10.0443 5.47656H22.6224C25.5325 5.47656 27.095 7.07812 27.095 9.94922V17.4297C27.095 20.3008 25.5325 21.9023 22.6224 21.9023H22.1536V24.4414C22.1536 25.1934 21.7728 25.6816 21.0892 25.6816ZM20.6888 23.8945V21.0625C20.6888 20.5352 20.8939 20.3301 21.4212 20.3301H22.6224C24.595 20.3301 25.5228 19.3242 25.5228 17.4199V9.94922C25.5228 8.04492 24.595 7.04883 22.6224 7.04883H10.0443C8.08138 7.04883 7.14388 8.04492 7.14388 9.94922V17.4199C7.14388 19.3242 8.08138 20.3301 10.0443 20.3301H16.3724C16.9193 20.3301 17.1927 20.4082 17.5638 20.7891L20.6888 23.8945Z" fill="#4B4B4B"/>
</svg>
