<svg width="22" height="22" viewBox="0 0 22 22" fill="none" xmlns="http://www.w3.org/2000/svg">
<path d="M13.54 5.09668C12.5273 5.09668 11.7222 4.2915 11.7222 3.28711C11.7222 2.28271 12.5273 1.46924 13.54 1.46924C14.5444 1.46924 15.3496 2.28271 15.3496 3.28711C15.3496 4.2915 14.5444 5.09668 13.54 5.09668ZM5.22266 11.123C4.76611 10.8989 4.6001 10.3926 4.81592 9.96094L6.59229 6.43311C6.7334 6.14258 7.03223 5.95166 7.36426 5.95166H12.8843C13.98 5.95166 14.6938 6.30029 15.3662 6.97266L16.3623 7.97705L17.5908 5.55322C17.8066 5.12158 18.3296 4.93896 18.7695 5.14648C19.2344 5.3623 19.3672 5.89355 19.1514 6.3335L17.3999 9.85303C17.1177 10.4092 16.3955 10.4756 15.9888 10.0854L13.9551 8.14307C13.8389 8.01855 13.6562 8.06006 13.5898 8.20947L11.8633 11.6543H15.7563C16.4287 11.6543 16.769 12.3765 16.5283 12.8994L14.3203 17.7471C14.1045 18.2285 13.6729 18.3779 13.1748 18.187C12.7266 18.021 12.5356 17.4731 12.7349 17.0249L14.3203 13.5054L10.0288 13.771C8.48486 13.8623 7.7627 12.3931 8.35205 11.2227L9.9458 8.06006C10.0454 7.88574 9.9126 7.70312 9.72168 7.70312H7.90381L6.38477 10.7329C6.18555 11.1313 5.729 11.3555 5.22266 11.123ZM2.84033 19.6479C2.60791 19.1831 2.84033 18.6685 3.29688 18.4692L7.33936 16.7261L8.32715 14.0781C8.77539 14.4185 9.38135 14.6177 10.0786 14.5762L10.4189 14.5513L8.81689 17.7803C8.72559 17.9712 8.56787 18.1123 8.38525 18.1953L4.00244 20.1045C3.72021 20.229 3.11426 20.2207 2.84033 19.6479ZM17.3252 20.4697C16.3208 20.4697 15.5239 19.6729 15.5239 18.6519C15.5239 17.6475 16.3208 16.8423 17.3252 16.8423C18.3462 16.8423 19.1514 17.6475 19.1514 18.6519C19.1514 19.6729 18.3462 20.4697 17.3252 20.4697Z" fill="white"/>
</svg>
