<svg width="22" height="23" viewBox="0 0 22 23" fill="none" xmlns="http://www.w3.org/2000/svg">
<path d="M10.5 20.1147C10.3672 20.1147 10.1597 20.0649 9.94385 19.9487C5.229 17.2925 3.60205 16.1802 3.60205 13.1504V6.80029C3.60205 5.92871 3.98389 5.64648 4.68115 5.35596C5.66064 4.95752 8.83154 3.75391 9.81104 3.47168C10.0269 3.41357 10.2676 3.34717 10.5 3.34717C10.7324 3.34717 10.9731 3.39697 11.1973 3.47168C12.1768 3.81201 15.3394 4.94922 16.3188 5.35596C17.0244 5.65479 17.3979 5.92871 17.3979 6.80029V13.1504C17.3979 16.1802 15.7793 17.3008 11.0562 19.9487C10.8486 20.0649 10.6328 20.1147 10.5 20.1147ZM10.5 18.6123C10.6328 18.6123 10.7739 18.5625 11.0146 18.4131C14.8496 16.0806 16.0781 15.4082 16.0781 12.8433V7.05762C16.0781 6.77539 16.0283 6.65918 15.8042 6.57617C14.5176 6.13623 12.0854 5.25635 10.832 4.7583C10.6992 4.7085 10.5913 4.68359 10.5 4.68359C10.4087 4.68359 10.3008 4.7002 10.168 4.7583C8.91455 5.25635 6.46582 6.07812 5.2041 6.57617C4.97168 6.66748 4.92188 6.77539 4.92188 7.05762V12.8433C4.92188 15.4082 6.15039 16.0889 9.98535 18.4131C10.2344 18.5625 10.3672 18.6123 10.5 18.6123Z" fill="white"/>
</svg>
